<?xml version="1.0" encoding="UTF-8" standalone="no"?>
<!DOCTYPE svg PUBLIC "-//W3C//DTD SVG 1.1//EN" "http://www.w3.org/Graphics/SVG/1.1/DTD/svg11.dtd">
<!-- Created with Vectornator (http://vectornator.io/) -->
<svg height="100%" stroke-miterlimit="10" style="fill-rule:nonzero;clip-rule:evenodd;stroke-linecap:round;stroke-linejoin:round;" version="1.1" viewBox="0 0 159 36" width="100%" xml:space="preserve" xmlns="http://www.w3.org/2000/svg" xmlns:vectornator="http://vectornator.io" xmlns:xlink="http://www.w3.org/1999/xlink">
<defs/>
<g id="Untitled" vectornator:layerName="Untitled">
<g opacity="1">
<clipPath id="ClipPath">
<path d="M0 0L158.08 0L158.08 0L158.08 35.36L158.08 35.36L0 35.36L0 35.36L0 0L0 0Z"/>
</clipPath>
<g clip-path="url(#ClipPath)">
<path d="M5.04778 3.6309L0 3.6309L0 0.324463L13.9865 0.324463L13.9865 3.6309L8.93871 3.6309L8.93871 19.2941L5.04778 19.2941L5.04778 3.6309Z" fill="#122541" fill-rule="nonzero" opacity="1" stroke="none"/>
<path d="M22.6235 0.324463L26.5109 0.324463L26.5109 8.77986L33.2616 8.77986L33.2616 0.324463L37.1489 0.324463L37.1489 19.2941L33.2616 19.2941L33.2616 12.0863L26.5109 12.0863L26.5109 19.2941L22.6235 19.2941L22.6235 0.324463Z" fill="#122541" fill-rule="nonzero" opacity="1" stroke="none"/>
<path d="M51.1569 0.324463L51.1569 19.2941L47.2695 19.2941L47.2695 0.324463L51.1569 0.324463Z" fill="#122541" fill-rule="nonzero" opacity="1" stroke="none"/>
<path d="M60.3328 14.2533L64.274 14.2533C64.4105 15.6091 65.3554 16.2581 66.6775 16.2581C67.9996 16.2581 68.8655 15.4721 68.8655 14.2533C68.8655 13.0346 68.1074 12.3279 65.5422 11.2714C61.777 9.71374 60.4405 7.9253 60.4405 5.1453C60.4405 2.02996 62.7076-0.00366211 66.3542-0.00366211C69.7313-0.00366211 72.2678 2.00111 72.2678 5.30755L68.3266 5.30755C68.3266 4.14291 67.5721 3.35686 66.3003 3.35686C65.0033 3.35686 64.3818 4.14291 64.3818 5.09121C64.3818 6.23062 65.165 6.89407 67.8092 8.02987C71.5888 9.65604 72.8031 11.3615 72.8031 14.019C72.8031 17.3651 70.4283 19.615 66.62 19.615C62.8153 19.6222 60.5483 17.2893 60.3328 14.2533Z" fill="#122541" fill-rule="nonzero" opacity="1" stroke="none"/>
<path d="M91.8301 19.2941L85.5105 19.2941L85.5105 0.324463L91.8301 0.324463C97.9593 0.324463 102.091 3.79316 102.091 9.81109C102.091 15.8543 97.9593 19.2941 91.8301 19.2941ZM91.8552 3.6309L89.3978 3.6309L89.3978 15.9877L91.8552 15.9877C95.3941 15.9877 98.1461 13.9288 98.1461 9.83633C98.1461 5.68976 95.3941 3.6309 91.8552 3.6309Z" fill="#122541" fill-rule="nonzero" opacity="1" stroke="none"/>
<path d="M149.141 3.6309L144.094 3.6309L144.094 0.324463L158.08 0.324463L158.08 3.6309L153.029 3.6309L153.029 19.2941L149.141 19.2941L149.141 3.6309Z" fill="#122541" fill-rule="nonzero" opacity="1" stroke="none"/>
<path d="M85.7224 26.5439L87.3894 26.5439L87.3894 33.265L90.6445 33.265L90.6445 34.6856L85.7224 34.6856L85.7224 26.5439Z" fill="#f46663" fill-rule="nonzero" opacity="1" stroke="none"/>
<path d="M110.868 33.479L107.369 33.479L106.905 34.6905L105.166 34.6905L108.446 26.5488L109.79 26.5488L113.07 34.6905L111.331 34.6905L110.868 33.479ZM107.9 32.0836L110.333 32.0836L109.115 28.9214L107.9 32.0836Z" fill="#f46663" fill-rule="nonzero" opacity="1" stroke="none"/>
<path d="M127.032 26.5488L129.848 26.5488C131.681 26.5488 132.697 27.5476 132.697 28.8745C132.697 29.5271 132.36 30.2591 131.666 30.5728C132.5 30.8288 133.067 31.5608 133.067 32.4225C133.067 33.9009 132.141 34.6905 129.996 34.6905L127.028 34.6905L127.028 26.5488L127.032 26.5488ZM129.791 27.9442L128.702 27.9442L128.702 30.0031L129.791 30.0031C130.696 30.0031 131.03 29.6209 131.03 28.9683C131.03 28.3156 130.696 27.9442 129.791 27.9442ZM128.702 31.3985L128.702 33.2951L130.139 33.2951C131.02 33.2951 131.347 32.9454 131.347 32.354C131.347 31.7591 131.023 31.4021 130.139 31.4021L128.702 31.4021L128.702 31.3985Z" fill="#f46663" fill-rule="nonzero" opacity="1" stroke="none"/>
<path d="M148.477 28.6185C148.477 27.3024 149.404 26.4082 151.085 26.4082C151.861 26.4082 152.662 26.6173 153.262 26.9779L152.752 28.3048C152.335 28.0272 151.778 27.8505 151.247 27.8505C150.517 27.8505 150.169 28.1173 150.169 28.5356C150.169 28.9899 150.471 29.2639 151.57 29.7687C152.989 30.4214 153.668 31.1389 153.668 32.3612C153.668 33.8612 152.648 34.8275 150.736 34.8275C149.892 34.8275 148.987 34.5824 148.304 34.1641L148.814 32.8156C149.335 33.1761 150.043 33.3853 150.668 33.3853C151.48 33.3853 151.98 33.0608 151.98 32.4947C151.98 31.8961 151.556 31.5572 150.56 31.1245C148.947 30.4214 148.477 29.6714 148.477 28.6185Z" fill="#f46663" fill-rule="nonzero" opacity="1" stroke="none"/>
<path d="M123.123 15.5445C126.369 15.5445 129.001 12.9034 129.001 9.64553C129.001 6.38763 126.369 3.74658 123.123 3.74658C119.877 3.74658 117.245 6.38763 117.245 9.64553C117.245 12.9034 119.877 15.5445 123.123 15.5445Z" fill="#f46663" fill-rule="nonzero" opacity="1" stroke="none"/>
<path d="M132.198 0.162354L127.359 0.162354L134.616 9.64538L127.359 19.132L132.198 19.132L139.455 9.64538L132.198 0.162354Z" fill="#9faccc" fill-rule="nonzero" opacity="1" stroke="none"/>
<path d="M114.048 0.162354L118.887 0.162354L111.63 9.64538L118.887 19.132L114.048 19.132L106.79 9.64538L114.048 0.162354Z" fill="#9faccc" fill-rule="nonzero" opacity="1" stroke="none"/>
</g>
</g>
</g>
</svg>
